<mxfile host="app.diagrams.net" modified="2022-12-14T02:58:23.339Z" agent="5.0 (X11; Linux x86_64) AppleWebKit/537.36 (KHTML, like Gecko) Chrome/99.0.4844.82 Safari/537.36" etag="-uFoO500UAKXxBT1UGHN" version="20.6.2" type="github">
  <diagram name="Page-1" id="19d8dcba-68ad-dc05-1034-9cf7b2a963f6">
    <mxGraphModel dx="2230" dy="1133" grid="1" gridSize="10" guides="1" tooltips="1" connect="1" arrows="1" fold="1" page="1" pageScale="1" pageWidth="1100" pageHeight="850" background="none" math="0" shadow="0">
      <root>
        <mxCell id="0" />
        <mxCell id="1" parent="0" />
        <mxCell id="ttnFgEQTrTI2kYRDcvVG-5" value="" style="edgeStyle=orthogonalEdgeStyle;rounded=0;orthogonalLoop=1;jettySize=auto;html=1;" edge="1" parent="1" source="218ae93e1282097f-24" target="ttnFgEQTrTI2kYRDcvVG-4">
          <mxGeometry relative="1" as="geometry" />
        </mxCell>
        <mxCell id="218ae93e1282097f-24" value="1其实就是根据障碍物的然后得到对应的sl边界然后将这个sl边界进行扩展然后得到对应的一系列的pathpoint点，之后将根据这些点创建车的box，然后对这两个box进行碰撞测试，如果是有碰撞的话，则更新上下point" style="whiteSpace=wrap;html=1;rounded=1;shadow=0;comic=0;strokeWidth=2;fontFamily=Verdana;align=center;fontSize=10;" parent="1" vertex="1">
          <mxGeometry x="876" y="440" width="223" height="130" as="geometry" />
        </mxCell>
        <mxCell id="218ae93e1282097f-42" value="" style="edgeStyle=orthogonalEdgeStyle;rounded=1;html=1;labelBackgroundColor=none;endArrow=block;endFill=1;strokeColor=#4D4D4D;strokeWidth=2;fontFamily=Verdana;fontSize=12;fontStyle=1" parent="1" source="6257edae8c83ed4a-1" target="6257edae8c83ed4a-12" edge="1">
          <mxGeometry relative="1" as="geometry" />
        </mxCell>
        <mxCell id="218ae93e1282097f-51" value="" style="edgeStyle=elbowEdgeStyle;rounded=1;html=1;labelBackgroundColor=none;endArrow=block;endFill=1;strokeColor=#4D4D4D;strokeWidth=2;fontFamily=Verdana;fontSize=10;" parent="1" source="6257edae8c83ed4a-12" target="218ae93e1282097f-24" edge="1">
          <mxGeometry relative="1" as="geometry" />
        </mxCell>
        <mxCell id="218ae93e1282097f-55" value="Position 1" style="text;html=1;strokeColor=none;fillColor=none;align=center;verticalAlign=middle;whiteSpace=wrap;rounded=1;shadow=0;comic=0;fontFamily=Verdana;fontSize=10;" parent="1" vertex="1">
          <mxGeometry x="75" y="505" width="90" height="25" as="geometry" />
        </mxCell>
        <mxCell id="218ae93e1282097f-58" value="Position 2" style="text;html=1;strokeColor=none;fillColor=none;align=center;verticalAlign=middle;whiteSpace=wrap;rounded=1;shadow=0;comic=0;fontFamily=Verdana;fontSize=10;" parent="1" vertex="1">
          <mxGeometry x="75" y="540" width="90" height="25" as="geometry" />
        </mxCell>
        <mxCell id="ttnFgEQTrTI2kYRDcvVG-3" value="" style="edgeStyle=orthogonalEdgeStyle;rounded=0;orthogonalLoop=1;jettySize=auto;html=1;" edge="1" parent="1" source="6257edae8c83ed4a-12" target="ttnFgEQTrTI2kYRDcvVG-2">
          <mxGeometry relative="1" as="geometry" />
        </mxCell>
        <mxCell id="6257edae8c83ed4a-12" value="Name&lt;div&gt;&lt;span&gt;Position&lt;/span&gt;&lt;/div&gt;" style="whiteSpace=wrap;html=1;rounded=1;shadow=0;comic=0;strokeWidth=2;fontFamily=Verdana;align=center;fontSize=12;fontStyle=1" parent="1" vertex="1">
          <mxGeometry x="887" y="330" width="200" height="50" as="geometry" />
        </mxCell>
        <mxCell id="6257edae8c83ed4a-13" value="" style="shape=actor;whiteSpace=wrap;html=1;rounded=0;shadow=0;comic=0;strokeWidth=1;fillColor=#CCCCCC;fontFamily=Verdana;align=center;strokeColor=none;fontSize=12;fontStyle=1" parent="1" vertex="1">
          <mxGeometry x="901" y="340" width="24" height="30" as="geometry" />
        </mxCell>
        <mxCell id="6257edae8c83ed4a-1" value="Name&lt;div&gt;&lt;span&gt;Position&lt;/span&gt;&lt;/div&gt;" style="whiteSpace=wrap;html=1;rounded=1;shadow=0;comic=0;strokeWidth=2;fontFamily=Verdana;align=center;fontSize=12;fontStyle=1" parent="1" vertex="1">
          <mxGeometry x="887" y="140" width="200" height="50" as="geometry" />
        </mxCell>
        <mxCell id="6257edae8c83ed4a-2" value="" style="shape=actor;whiteSpace=wrap;html=1;rounded=0;shadow=0;comic=0;strokeWidth=1;fillColor=#CCCCCC;fontFamily=Verdana;align=center;strokeColor=none;fontSize=12;fontStyle=1" parent="1" vertex="1">
          <mxGeometry x="901" y="150" width="24" height="30" as="geometry" />
        </mxCell>
        <mxCell id="ttnFgEQTrTI2kYRDcvVG-2" value="如果是有障碍物轨迹的话则将这个得到障碍物的轨迹的路径点，然后根据这个路径点得到障碍物的轮廓之后，进行sl边界的计算之后进行s的扩展，然后计算对应的路径点，然后根据这些路径点进行计算出车的box，然后做碰撞检测，如果有碰撞，就计算对应上下point." style="whiteSpace=wrap;html=1;fontFamily=Verdana;rounded=1;shadow=0;comic=0;strokeWidth=2;fontStyle=1;" vertex="1" parent="1">
          <mxGeometry x="1250" y="292.5" width="503" height="125" as="geometry" />
        </mxCell>
        <mxCell id="ttnFgEQTrTI2kYRDcvVG-10" value="" style="edgeStyle=orthogonalEdgeStyle;rounded=0;orthogonalLoop=1;jettySize=auto;html=1;" edge="1" parent="1" source="ttnFgEQTrTI2kYRDcvVG-4" target="ttnFgEQTrTI2kYRDcvVG-9">
          <mxGeometry relative="1" as="geometry" />
        </mxCell>
        <mxCell id="ttnFgEQTrTI2kYRDcvVG-4" value="在得到上下point的值之后然后计算跟车距离，之后如果是有碰撞，则输出ttc碰撞时间，如果有碰撞或者ttc时间小于一定值对得到的上下point进行更新，然后将更新后的上下point获取得到真实的sl边界将其进行存储，这时会存到两个数据结构里面一个是path_time_obstacle_map_另一个是path_time_obstacles_，当我们使用时可以利用path_time_obstacles_来得到对应的sl边界，从而计算刹车距离。" style="whiteSpace=wrap;html=1;fontSize=10;fontFamily=Verdana;rounded=1;shadow=0;comic=0;strokeWidth=2;" vertex="1" parent="1">
          <mxGeometry x="770.63" y="730" width="433.75" height="100" as="geometry" />
        </mxCell>
        <mxCell id="ttnFgEQTrTI2kYRDcvVG-9" value="在得到path_time_obstacles之后按照从小到大的顺序进行排序，之后如果这个障碍物的属性是object则对其st的边界进行扩展将跟车距离考虑进去，同样的如果是其他障碍物则也需要将对应的跟车距离考虑进去" style="whiteSpace=wrap;html=1;fontSize=10;fontFamily=Verdana;rounded=1;shadow=0;comic=0;strokeWidth=2;" vertex="1" parent="1">
          <mxGeometry x="834.88" y="960" width="304.25" height="60" as="geometry" />
        </mxCell>
      </root>
    </mxGraphModel>
  </diagram>
</mxfile>
